Normalized EMG Linear Envelopes
nRows=54
nColumns=17

endheader
time	        VM	        VL	        RF	       GRA	        TA	   ADDLONG	   SEMIMEM	      BFLH	        GM	        GL	       TFL	   GLUTMAX	   GLUTMED	      PIRI	    OBTINT	        QF	
1.9175	  0.421119	  0.407067	  0.059782	  0.709662	  0.372609	  0.285650	  0.682788	  0.946072	  0.412715	  0.219324	  0.051601	  0.457332	  0.119471	  0.351165	  1.057389	  1.281535	
1.918	  0.425270	  0.412963	  0.060296	  0.707620	  0.370238	  0.285048	  0.676810	  0.943064	  0.410951	  0.219994	  0.052088	  0.456726	  0.119785	  0.352799	  1.063395	  1.288877	
1.9185	  0.429409	  0.418888	  0.060808	  0.705502	  0.367878	  0.284392	  0.670825	  0.940041	  0.409222	  0.220694	  0.052582	  0.456100	  0.120131	  0.354503	  1.069356	  1.296261	
1.919	  0.433538	  0.424843	  0.061320	  0.703309	  0.365530	  0.283683	  0.664834	  0.937003	  0.407533	  0.221424	  0.053082	  0.455455	  0.120511	  0.356277	  1.075267	  1.303684	
1.9195	  0.437656	  0.430824	  0.061831	  0.701044	  0.363194	  0.282921	  0.658843	  0.933951	  0.405885	  0.222184	  0.053590	  0.454791	  0.120923	  0.358122	  1.081124	  1.311146	
1.92	  0.441764	  0.436832	  0.062341	  0.698709	  0.360870	  0.282108	  0.652854	  0.930886	  0.404280	  0.222974	  0.054104	  0.454111	  0.121369	  0.360035	  1.086925	  1.318646	
1.9205	  0.445861	  0.442865	  0.062850	  0.696306	  0.358559	  0.281243	  0.646871	  0.927808	  0.402719	  0.223795	  0.054625	  0.453415	  0.121849	  0.362018	  1.092664	  1.326181	
1.921	  0.449949	  0.448922	  0.063359	  0.693837	  0.356260	  0.280329	  0.640898	  0.924718	  0.401207	  0.224646	  0.055152	  0.452705	  0.122363	  0.364069	  1.098339	  1.333752	
1.9215	  0.454028	  0.455001	  0.063867	  0.691303	  0.353975	  0.279366	  0.634936	  0.921617	  0.399743	  0.225529	  0.055685	  0.451981	  0.122912	  0.366188	  1.103945	  1.341357	
1.922	  0.458098	  0.461101	  0.064374	  0.688707	  0.351702	  0.278354	  0.628991	  0.918506	  0.398331	  0.226443	  0.056224	  0.451246	  0.123496	  0.368374	  1.109477	  1.348994	
1.9225	  0.462159	  0.467219	  0.064880	  0.686049	  0.349443	  0.277294	  0.623063	  0.915383	  0.396972	  0.227389	  0.056768	  0.450500	  0.124117	  0.370626	  1.114931	  1.356663	
1.923	  0.466211	  0.473355	  0.065385	  0.683333	  0.347197	  0.276187	  0.617157	  0.912251	  0.395668	  0.228367	  0.057318	  0.449744	  0.124773	  0.372944	  1.120304	  1.364362	
1.9235	  0.470255	  0.479505	  0.065890	  0.680558	  0.344963	  0.275035	  0.611275	  0.909109	  0.394421	  0.229377	  0.057872	  0.448980	  0.125466	  0.375326	  1.125590	  1.372090	
1.924	  0.474291	  0.485669	  0.066394	  0.677728	  0.342742	  0.273836	  0.605419	  0.905959	  0.393234	  0.230420	  0.058431	  0.448210	  0.126195	  0.377771	  1.130786	  1.379845	
1.9245	  0.478318	  0.491843	  0.066898	  0.674842	  0.340533	  0.272594	  0.599593	  0.902800	  0.392108	  0.231495	  0.058995	  0.447436	  0.126963	  0.380279	  1.135890	  1.387625	
1.925	  0.482338	  0.498027	  0.067400	  0.671904	  0.338337	  0.271309	  0.593798	  0.899633	  0.391045	  0.232603	  0.059563	  0.446658	  0.127768	  0.382848	  1.140899	  1.395429	
1.9255	  0.486351	  0.504217	  0.067902	  0.668915	  0.336154	  0.269981	  0.588037	  0.896460	  0.390046	  0.233744	  0.060134	  0.445878	  0.128612	  0.385477	  1.145811	  1.403254	
1.926	  0.490357	  0.510411	  0.068403	  0.665877	  0.333983	  0.268612	  0.582312	  0.893281	  0.389114	  0.234918	  0.060710	  0.445099	  0.129495	  0.388165	  1.150626	  1.411100	
1.9265	  0.494358	  0.516608	  0.068904	  0.662791	  0.331824	  0.267204	  0.576625	  0.890097	  0.388250	  0.236125	  0.061288	  0.444323	  0.130417	  0.390911	  1.155344	  1.418962	
1.927	  0.498355	  0.522804	  0.069403	  0.659659	  0.329678	  0.265758	  0.570979	  0.886910	  0.387456	  0.237366	  0.061870	  0.443550	  0.131380	  0.393714	  1.159966	  1.426840	
1.9275	  0.502348	  0.528997	  0.069902	  0.656485	  0.327544	  0.264275	  0.565376	  0.883719	  0.386732	  0.238641	  0.062455	  0.442783	  0.132382	  0.396573	  1.164492	  1.434730	
1.928	  0.506338	  0.535184	  0.070400	  0.653269	  0.325421	  0.262757	  0.559818	  0.880527	  0.386080	  0.239950	  0.063042	  0.442024	  0.133426	  0.399487	  1.168925	  1.442629	
1.9285	  0.510326	  0.541364	  0.070897	  0.650015	  0.323311	  0.261206	  0.554307	  0.877332	  0.385501	  0.241295	  0.063631	  0.441275	  0.134510	  0.402455	  1.173266	  1.450534	
1.929	  0.514313	  0.547532	  0.071393	  0.646724	  0.321212	  0.259622	  0.548845	  0.874136	  0.384996	  0.242674	  0.064223	  0.440537	  0.135636	  0.405475	  1.177517	  1.458442	
1.9295	  0.518300	  0.553686	  0.071889	  0.643400	  0.319124	  0.258008	  0.543433	  0.870940	  0.384567	  0.244089	  0.064817	  0.439813	  0.136804	  0.408548	  1.181682	  1.466348	
1.93	  0.522287	  0.559823	  0.072383	  0.640044	  0.317047	  0.256364	  0.538075	  0.867742	  0.384213	  0.245540	  0.065412	  0.439103	  0.138014	  0.411672	  1.185763	  1.474249	
1.9305	  0.526275	  0.565939	  0.072876	  0.636658	  0.314982	  0.254693	  0.532771	  0.864543	  0.383937	  0.247027	  0.066009	  0.438408	  0.139266	  0.414846	  1.189760	  1.482141	
1.931	  0.530264	  0.572033	  0.073368	  0.633244	  0.312927	  0.252995	  0.527524	  0.861343	  0.383737	  0.248550	  0.066606	  0.437732	  0.140561	  0.418069	  1.193678	  1.490021	
1.9315	  0.534255	  0.578099	  0.073858	  0.629804	  0.310883	  0.251271	  0.522335	  0.858142	  0.383616	  0.250110	  0.067204	  0.437074	  0.141899	  0.421340	  1.197517	  1.497884	
1.932	  0.538248	  0.584135	  0.074348	  0.626340	  0.308851	  0.249524	  0.517207	  0.854940	  0.383574	  0.251706	  0.067803	  0.436435	  0.143280	  0.424657	  1.201280	  1.505727	
1.9325	  0.542242	  0.590138	  0.074836	  0.622852	  0.306829	  0.247753	  0.512141	  0.851737	  0.383610	  0.253340	  0.068401	  0.435818	  0.144704	  0.428021	  1.204969	  1.513544	
1.933	  0.546238	  0.596104	  0.075322	  0.619343	  0.304818	  0.245961	  0.507140	  0.848534	  0.383727	  0.255010	  0.068999	  0.435222	  0.146171	  0.431430	  1.208586	  1.521333	
1.9335	  0.550236	  0.602029	  0.075806	  0.615814	  0.302818	  0.244149	  0.502204	  0.845331	  0.383923	  0.256719	  0.069597	  0.434648	  0.147682	  0.434883	  1.212132	  1.529088	
1.934	  0.554235	  0.607912	  0.076289	  0.612267	  0.300829	  0.242317	  0.497336	  0.842128	  0.384199	  0.258465	  0.070193	  0.434098	  0.149236	  0.438378	  1.215609	  1.536803	
1.9345	  0.558236	  0.613749	  0.076769	  0.608703	  0.298851	  0.240467	  0.492537	  0.838928	  0.384556	  0.260250	  0.070787	  0.433571	  0.150833	  0.441916	  1.219019	  1.544474	
1.935	  0.562238	  0.619537	  0.077247	  0.605123	  0.296885	  0.238600	  0.487809	  0.835733	  0.384994	  0.262074	  0.071380	  0.433068	  0.152474	  0.445493	  1.222365	  1.552096	
1.9355	  0.566240	  0.625273	  0.077723	  0.601530	  0.294929	  0.236718	  0.483153	  0.832544	  0.385512	  0.263936	  0.071971	  0.432590	  0.154159	  0.449111	  1.225647	  1.559662	
1.936	  0.570243	  0.630954	  0.078197	  0.597924	  0.292985	  0.234821	  0.478572	  0.829364	  0.386112	  0.265838	  0.072558	  0.432135	  0.155887	  0.452769	  1.228871	  1.567167	
1.9365	  0.574246	  0.636578	  0.078668	  0.594308	  0.291052	  0.232911	  0.474066	  0.826195	  0.386792	  0.267780	  0.073143	  0.431706	  0.157658	  0.456464	  1.232038	  1.574605	
1.937	  0.578250	  0.642141	  0.079136	  0.590682	  0.289131	  0.230989	  0.469637	  0.823039	  0.387554	  0.269762	  0.073724	  0.431301	  0.159473	  0.460198	  1.235153	  1.581971	
1.9375	  0.582252	  0.647639	  0.079602	  0.587048	  0.287222	  0.229056	  0.465286	  0.819898	  0.388396	  0.271783	  0.074302	  0.430920	  0.161331	  0.463969	  1.238219	  1.589259	
1.938	  0.586253	  0.653071	  0.080064	  0.583409	  0.285324	  0.227113	  0.461015	  0.816774	  0.389319	  0.273845	  0.074875	  0.430563	  0.163232	  0.467775	  1.241241	  1.596463	
1.9385	  0.590253	  0.658433	  0.080524	  0.579765	  0.283438	  0.225162	  0.456824	  0.813668	  0.390323	  0.275948	  0.075444	  0.430229	  0.165177	  0.471617	  1.244222	  1.603577	
1.939	  0.594251	  0.663723	  0.080980	  0.576118	  0.281565	  0.223204	  0.452716	  0.810582	  0.391407	  0.278091	  0.076007	  0.429919	  0.167164	  0.475493	  1.247167	  1.610597	
1.9395	  0.598245	  0.668937	  0.081433	  0.572470	  0.279704	  0.221239	  0.448689	  0.807518	  0.392570	  0.280276	  0.076564	  0.429631	  0.169194	  0.479401	  1.250080	  1.617517	
1.94	  0.602236	  0.674074	  0.081882	  0.568822	  0.277855	  0.219269	  0.444746	  0.804478	  0.393813	  0.282502	  0.077116	  0.429365	  0.171266	  0.483340	  1.252965	  1.624334	
1.9405	  0.606222	  0.679132	  0.082328	  0.565176	  0.276018	  0.217296	  0.440887	  0.801461	  0.395135	  0.284769	  0.077661	  0.429120	  0.173381	  0.487309	  1.255826	  1.631042	
1.941	  0.610203	  0.684108	  0.082769	  0.561533	  0.274194	  0.215319	  0.437113	  0.798470	  0.396535	  0.287079	  0.078200	  0.428895	  0.175538	  0.491307	  1.258666	  1.637637	
1.9415	  0.614177	  0.689001	  0.083206	  0.557895	  0.272382	  0.213340	  0.433424	  0.795506	  0.398013	  0.289430	  0.078731	  0.428689	  0.177736	  0.495334	  1.261489	  1.644115	
1.942	  0.618144	  0.693808	  0.083639	  0.554262	  0.270582	  0.211359	  0.429819	  0.792569	  0.399568	  0.291824	  0.079256	  0.428502	  0.179975	  0.499387	  1.264297	  1.650470	
1.9425	  0.622101	  0.698527	  0.084067	  0.550635	  0.268795	  0.209378	  0.426301	  0.789660	  0.401199	  0.294261	  0.079773	  0.428332	  0.182255	  0.503467	  1.267093	  1.656697	
1.943	  0.626047	  0.703156	  0.084491	  0.547015	  0.267020	  0.207398	  0.422868	  0.786779	  0.402906	  0.296740	  0.080282	  0.428179	  0.184575	  0.507571	  1.269879	  1.662791	
1.9435	  0.629980	  0.707693	  0.084909	  0.543404	  0.265257	  0.205418	  0.419521	  0.783927	  0.404690	  0.299261	  0.080784	  0.428040	  0.186936	  0.511699	  1.272658	  1.668745	
1.944	  0.633899	  0.712135	  0.085322	  0.539801	  0.263506	  0.203440	  0.416260	  0.781105	  0.406549	  0.301824	  0.081278	  0.427915	  0.189335	  0.515850	  1.275431	  1.674556	
